<svg xmlns="http://www.w3.org/2000/svg" viewBox="0 0 100 100" style="width:##width##px;">
    <rect x="46.5" y="40" width="7" height="20" rx="5" ry="5" transform="rotate(0 50 50) translate(0 -30)" fill="##color##">
        <animate attributeName="opacity" from="1" to="0" dur="1s" begin="-1s" repeatCount="indefinite"/>
    </rect>
    <rect x="46.5" y="40" width="7" height="20" rx="5" ry="5" transform="rotate(30 50 50) translate(0 -30)" fill="##color##">
        <animate attributeName="opacity" from="1" to="0" dur="1s" begin="-0.916s" repeatCount="indefinite"/>
    </rect>
    <rect x="46.5" y="40" width="7" height="20" rx="5" ry="5" transform="rotate(60 50 50) translate(0 -30)" fill="##color##">
        <animate attributeName="opacity" from="1" to="0" dur="1s" begin="-0.833s" repeatCount="indefinite"/>
    </rect>
    <rect x="46.5" y="40" width="7" height="20" rx="5" ry="5" transform="rotate(90 50 50) translate(0 -30)" fill="##color##">
        <animate attributeName="opacity" from="1" to="0" dur="1s" begin="-0.75s" repeatCount="indefinite"/>
    </rect>
    <rect x="46.5" y="40" width="7" height="20" rx="5" ry="5" transform="rotate(120 50 50) translate(0 -30)" fill="##color##">
        <animate attributeName="opacity" from="1" to="0" dur="1s" begin="-0.666s" repeatCount="indefinite"/>
    </rect>
    <rect x="46.5" y="40" width="7" height="20" rx="5" ry="5" transform="rotate(150 50 50) translate(0 -30)" fill="##color##">
        <animate attributeName="opacity" from="1" to="0" dur="1s" begin="-0.583s" repeatCount="indefinite"/>
    </rect>
    <rect x="46.5" y="40" width="7" height="20" rx="5" ry="5" transform="rotate(180 50 50) translate(0 -30)" fill="##color##">
        <animate attributeName="opacity" from="1" to="0" dur="1s" begin="-0.5s" repeatCount="indefinite"/>
    </rect>
    <rect x="46.5" y="40" width="7" height="20" rx="5" ry="5" transform="rotate(210 50 50) translate(0 -30)" fill="##color##">
        <animate attributeName="opacity" from="1" to="0" dur="1s" begin="-0.416s" repeatCount="indefinite"/>
    </rect>
    <rect x="46.5" y="40" width="7" height="20" rx="5" ry="5" transform="rotate(240 50 50) translate(0 -30)" fill="##color##">
        <animate attributeName="opacity" from="1" to="0" dur="1s" begin="-0.38s" repeatCount="indefinite"/>
    </rect>
    <rect x="46.5" y="40" width="7" height="20" rx="5" ry="5" transform="rotate(270 50 50) translate(0 -30)" fill="##color##">
        <animate attributeName="opacity" from="1" to="0" dur="1s" begin="-0.32s" repeatCount="indefinite"/>
    </rect>
    <rect x="46.5" y="40" width="7" height="20" rx="5" ry="5" transform="rotate(300 50 50) translate(0 -30)" fill="##color##">
        <animate attributeName="opacity" from="1" to="0" dur="1s" begin="-0.25s" repeatCount="indefinite"/>
    </rect>
    <rect x="46.5" y="40" width="7" height="20" rx="5" ry="5" transform="rotate(330 50 50) translate(0 -30)" fill="##color##">
        <animate attributeName="opacity" from="1" to="0" dur="1s" begin="-0.15s" repeatCount="indefinite"/>
    </rect>
</svg>